<svg preserveAspectRatio="none" width="100%" height="100%" overflow="visible" style="display: block;" viewBox="0 0 20 23.7037" fill="none" xmlns="http://www.w3.org/2000/svg">
<g id="Layer_1" clip-path="url(#clip0_0_33)">
<path id="Vector" d="M1.34153 3.55185C1.34153 3.55185 0 3.79005 0 4.89637V12.9582C0 17.267 6.47247 22.0628 8.66916 23.492C9.10743 23.7778 9.67397 23.7778 10.1122 23.492C12.3143 22.0681 18.7814 17.2723 18.7814 12.9582V4.89637C18.7814 3.79005 17.4399 3.55185 17.4399 3.55185L10.1871 1.31805C9.66863 1.15925 9.11277 1.15925 8.59434 1.31805L1.34153 3.55185Z" fill="var(--fill-0, #E7EFFD)"/>
<path id="Vector_2" d="M2.97167 2.60963C2.97167 2.60963 3.01443 2.59904 3.04115 2.59375L10.294 0.359949C10.7002 0.232908 11.1384 0.232908 11.5446 0.359949L18.7974 2.59375C18.7974 2.59375 18.8402 2.60434 18.8669 2.60963C18.8669 2.60963 18.8776 2.60963 18.8936 2.61492C18.9204 2.62022 18.9578 2.6308 19.0059 2.64668C19.1021 2.67844 19.225 2.72608 19.3479 2.7949C19.5831 2.93253 19.7381 3.1125 19.7381 3.38776V11.4496C19.7381 12.3865 19.3854 13.3922 18.7707 14.4244C18.1614 15.4513 17.3169 16.4624 16.3923 17.3993C14.5377 19.2784 12.4051 20.8082 11.3308 21.5017C11.085 21.6605 10.7696 21.6605 10.5238 21.5017C9.44415 20.8029 7.31694 19.2732 5.46232 17.394C4.53768 16.4571 3.69321 15.446 3.08391 14.4191C2.47461 13.3922 2.11652 12.3865 2.11652 11.4443V3.38776C2.11652 3.1125 2.26617 2.93253 2.50668 2.7949C2.62427 2.72608 2.74719 2.67844 2.84874 2.64668C2.89685 2.6308 2.93426 2.62022 2.96098 2.61492C2.97167 2.61492 2.98236 2.61492 2.98771 2.60963H2.97167Z" stroke="var(--stroke-0, #0046C7)" stroke-width="0.5"/>
<g id="Group">
<path id="Vector_3" d="M6.26403 8.3H5.72421L6.26403 9.55982L5.78835 10.6503L4.77285 8.3H4.23303L5.62266 11.5395H5.95938L6.53661 10.2056L7.11384 11.5395H7.45056L8.84019 8.3H8.30037L7.28488 10.6714L6.26937 8.3H6.26403Z" fill="var(--fill-0, #0046C7)"/>
<path id="Vector_4" d="M11.4057 8.3L10.4757 9.93036L9.5457 8.3H8.96847L10.2405 10.5073V11.5237H10.7322V10.5073L11.9829 8.3H11.4057Z" fill="var(--fill-0, #0046C7)"/>
<path id="Vector_5" d="M15.0134 11.5395H17.5842V10.9837H15.0134V11.5395Z" fill="var(--fill-0, #0046C7)"/>
<path id="Vector_6" d="M15.0134 8.8558H17.5842V8.3H15.0134V8.8558Z" fill="var(--fill-0, #0046C7)"/>
<path id="Vector_7" d="M15.0134 10.1897H17.5842V9.63393H15.0134V10.1897Z" fill="var(--fill-0, #0046C7)"/>
<path id="Vector_8" d="M12.1325 8.3V8.83992H13.8268L11.9294 11.5448H14.6873V11.0102H12.9449L14.8584 8.30529H12.1325V8.3Z" fill="var(--fill-0, #0046C7)"/>
</g>
</g>
<defs>
<clipPath id="clip0_0_33">
<rect width="20" height="23.7037" fill="white"/>
</clipPath>
</defs>
</svg>
