<svg preserveAspectRatio="none" width="100%" height="100%" overflow="visible" style="display: block;" viewBox="0 0 29 29" fill="none" xmlns="http://www.w3.org/2000/svg">
<g id="carbon:delivery">
<path id="Vector" d="M3.625 14.5H14.5V16.3125H3.625V14.5ZM1.8125 9.96875H10.875V11.7812H1.8125V9.96875Z" fill="var(--fill-0, #0AA288)"/>
<path id="Vector_2" d="M27.1141 15.0492L24.3953 8.70544C24.3255 8.54245 24.2093 8.40355 24.0613 8.30593C23.9133 8.20831 23.7398 8.15627 23.5625 8.15625H20.8438V6.34375C20.8438 6.1034 20.7483 5.87289 20.5783 5.70293C20.4084 5.53298 20.1779 5.4375 19.9375 5.4375H5.4375V7.25H19.0313V18.6289C18.6186 18.869 18.2574 19.1882 17.9684 19.5683C17.6794 19.9484 17.4684 20.3819 17.3474 20.8438H11.6526C11.432 19.9895 10.9074 19.245 10.1772 18.7498C9.44694 18.2546 8.56118 18.0427 7.68591 18.1539C6.81064 18.2651 6.00596 18.6916 5.42271 19.3537C4.83946 20.0157 4.51767 20.8677 4.51767 21.75C4.51767 22.6323 4.83946 23.4843 5.42271 24.1463C6.00596 24.8084 6.81064 25.2349 7.68591 25.3461C8.56118 25.4573 9.44694 25.2454 10.1772 24.7502C10.9074 24.255 11.432 23.5105 11.6526 22.6563H17.3474C17.5446 23.434 17.9954 24.1239 18.6287 24.6166C19.2619 25.1094 20.0414 25.3769 20.8438 25.3769C21.6461 25.3769 22.4256 25.1094 23.0588 24.6166C23.6921 24.1239 24.1429 23.434 24.3401 22.6563H26.2813C26.5216 22.6563 26.7521 22.5608 26.9221 22.3908C27.092 22.2209 27.1875 21.9904 27.1875 21.75V15.4063C27.1875 15.2835 27.1625 15.162 27.1141 15.0492ZM8.15625 23.5625C7.79777 23.5625 7.44734 23.4562 7.14928 23.257C6.85122 23.0579 6.6189 22.7748 6.48172 22.4436C6.34453 22.1124 6.30864 21.748 6.37858 21.3964C6.44851 21.0448 6.62114 20.7219 6.87462 20.4684C7.1281 20.2149 7.45106 20.0423 7.80265 19.9723C8.15424 19.9024 8.51867 19.9383 8.84986 20.0755C9.18105 20.2127 9.46413 20.445 9.66329 20.743C9.86245 21.0411 9.96875 21.3915 9.96875 21.75C9.96875 22.2307 9.77779 22.6917 9.43788 23.0316C9.09797 23.3715 8.63696 23.5625 8.15625 23.5625ZM20.8438 9.96875H22.9644L24.9074 14.5H20.8438V9.96875ZM20.8438 23.5625C20.4853 23.5625 20.1348 23.4562 19.8368 23.257C19.5387 23.0579 19.3064 22.7748 19.1692 22.4436C19.032 22.1124 18.9961 21.748 19.0661 21.3964C19.136 21.0448 19.3086 20.7219 19.5621 20.4684C19.8156 20.2149 20.1386 20.0423 20.4901 19.9723C20.8417 19.9024 21.2062 19.9383 21.5374 20.0755C21.8686 20.2127 22.1516 20.445 22.3508 20.743C22.5499 21.0411 22.6563 21.3915 22.6563 21.75C22.6563 22.2307 22.4653 22.6917 22.1254 23.0316C21.7855 23.3715 21.3245 23.5625 20.8438 23.5625ZM25.375 20.8438H24.3401C24.1404 20.0675 23.6889 19.3794 23.0561 18.8874C22.4234 18.3954 21.6453 18.1272 20.8438 18.125V16.3125H25.375V20.8438Z" fill="var(--fill-0, #0AA288)"/>
</g>
</svg>
